<svg width="78" height="17" viewBox="0 0 78 17" fill="none" xmlns="http://www.w3.org/2000/svg">
<g filter="url(#filter0_i_412_268)">
<path d="M9.67463 5.48286C9.54677 4.25755 8.57718 3.54367 7.01091 3.54367C5.39137 3.54367 4.4857 4.28951 4.47505 5.31238C4.46439 6.43114 5.61512 6.93192 6.94698 7.23026L8.33211 7.57121C10.9745 8.17854 12.9457 9.52106 12.9563 12.0889C12.9457 14.9124 10.7508 16.7238 6.9896 16.7131C3.26039 16.7238 0.884355 14.9977 0.788461 11.684H3.89968C4.00623 13.2396 5.2422 14.0281 6.94698 14.0281C8.63045 14.0281 9.71725 13.2396 9.71725 12.0889C9.71725 11.034 8.75831 10.5439 7.07484 10.1284L5.39137 9.7235C2.79158 9.08421 1.19335 7.78431 1.19335 5.52548C1.18269 2.72324 3.65462 0.858641 7.03222 0.858641C10.4524 0.858641 12.7006 2.75521 12.7432 5.48286H9.67463ZM14.8265 16.5V1.07174H25.183V3.71415H18.0229V7.46466H24.6503V10.1071H18.0229V13.8576H25.2043V16.5H14.8265ZM40.3291 1.07174V16.5H37.5589L30.7824 6.69751H30.6545V16.5H27.458V1.07174H30.2709L37.0048 10.8742H37.154V1.07174H40.3291ZM45.9072 1.07174V16.5H42.7107V1.07174H45.9072ZM48.2888 16.5V1.07174H58.4535V3.71415H51.4852V7.46466H57.7929V10.1071H51.4852V16.5H48.2888ZM63.5414 1.07174V16.5H60.345V1.07174H63.5414ZM65.3263 3.71415V1.07174H77.963V3.71415H73.2322V16.5H70.0571V3.71415H65.3263Z" fill="#F26A08"/>
</g>
<defs>
<filter id="filter0_i_412_268" x="0.788452" y="0.858398" width="77.1746" height="16.8806" filterUnits="userSpaceOnUse" color-interpolation-filters="sRGB">
<feFlood flood-opacity="0" result="BackgroundImageFix"/>
<feBlend mode="normal" in="SourceGraphic" in2="BackgroundImageFix" result="shape"/>
<feColorMatrix in="SourceAlpha" type="matrix" values="0 0 0 0 0 0 0 0 0 0 0 0 0 0 0 0 0 0 127 0" result="hardAlpha"/>
<feOffset dy="1.01532"/>
<feGaussianBlur stdDeviation="0.50766"/>
<feComposite in2="hardAlpha" operator="arithmetic" k2="-1" k3="1"/>
<feColorMatrix type="matrix" values="0 0 0 0 0 0 0 0 0 0 0 0 0 0 0 0 0 0 0.25 0"/>
<feBlend mode="normal" in2="shape" result="effect1_innerShadow_412_268"/>
</filter>
</defs>
</svg>
